@startuml
'https://plantuml.com/class-diagram

interface Doclet {
}

class Locale {
}

interface DocletEnvironment {
}

interface Reporter {
}

enum SourceVersion {
}

Doclet --> Locale : "Use">
Doclet --> DocletEnvironment : "Use">
Doclet --> Reporter : "Use">
Doclet --> SourceVersion : "Use">

@enduml